<?xml version="1.0" standalone="no"?>
<!DOCTYPE svg PUBLIC "-//W3C//DTD SVG 20010904//EN"
 "http://www.w3.org/TR/2001/REC-SVG-20010904/DTD/svg10.dtd">
<svg version="1.0" xmlns="http://www.w3.org/2000/svg"
 width="1024.000000pt" height="1024.000000pt" viewBox="0 0 1024.000000 1024.000000"
 preserveAspectRatio="xMidYMid meet">

<g transform="translate(0.000000,1024.000000) scale(0.100000,-0.100000)"
fill="#000000" stroke="none">
<path d="M2845 10217 c-27 -13 -81 -36 -120 -52 -38 -15 -102 -42 -140 -60
-39 -18 -82 -36 -95 -40 -40 -12 -841 -331 -1005 -401 -158 -66 -532 -214
-542 -214 -3 0 -51 -20 -107 -45 -55 -24 -171 -71 -256 -103 -85 -33 -213 -85
-285 -115 -72 -30 -167 -68 -212 -83 l-83 -29 0 -2240 0 -2241 51 -49 c28 -28
75 -88 106 -134 30 -45 64 -92 74 -102 10 -10 19 -24 19 -31 0 -6 6 -19 14
-27 8 -9 16 -23 18 -31 2 -8 11 -23 21 -34 10 -12 20 -31 23 -43 4 -13 10 -23
15 -23 5 0 9 -7 9 -15 0 -8 4 -15 9 -15 5 0 13 -10 17 -22 4 -13 10 -25 14
-28 3 -3 17 -26 29 -53 13 -27 27 -44 33 -40 7 3 8 1 4 -6 -5 -7 1 -20 13 -30
11 -10 18 -21 15 -24 -3 -3 -1 -13 5 -24 5 -10 21 -43 35 -73 14 -30 35 -70
46 -87 11 -18 17 -39 14 -46 -2 -7 4 -22 16 -32 11 -10 20 -23 20 -29 0 -6 10
-31 22 -56 12 -25 26 -56 32 -70 6 -14 24 -41 41 -60 33 -38 185 -265 186
-277 0 -5 6 -15 13 -23 7 -8 20 -32 30 -53 9 -20 21 -37 26 -37 6 0 9 -3 8 -7
-3 -14 49 -132 63 -143 14 -11 137 -219 164 -275 15 -33 31 -62 34 -65 12 -9
42 -61 91 -154 26 -50 64 -118 84 -151 20 -33 50 -89 66 -125 34 -72 42 -88
107 -210 25 -47 49 -89 53 -95 4 -5 27 -45 49 -88 23 -43 52 -95 66 -115 14
-20 25 -43 26 -52 0 -8 16 -42 35 -75 18 -33 63 -120 98 -192 36 -73 91 -177
122 -230 32 -54 72 -130 90 -168 18 -39 41 -82 52 -95 10 -14 43 -72 73 -130
30 -58 111 -206 181 -330 69 -124 136 -246 149 -272 l23 -48 1947 0 1947 0
-78 129 c-85 143 -127 245 -171 425 -40 164 -53 274 -46 386 33 505 274 876
700 1075 162 75 351 125 480 125 l57 0 0 -52 c1 -29 7 -70 14 -90 l14 -38 -69
0 c-38 0 -77 -4 -87 -9 -9 -5 -51 -17 -92 -26 -167 -36 -289 -93 -412 -192
-194 -157 -336 -364 -388 -568 -44 -169 -37 -428 16 -613 54 -187 165 -402
266 -517 l30 -35 91 0 90 0 -79 78 c-118 116 -207 260 -273 441 -47 130 -61
208 -61 350 0 222 44 370 159 538 177 259 452 403 769 403 130 0 270 -34 312
-76 29 -29 21 -39 -42 -49 -32 -6 -40 -13 -65 -62 l-28 -56 -130 -2 c-116 -2
-140 -6 -224 -34 -144 -48 -205 -85 -307 -186 -140 -139 -191 -259 -201 -476
-12 -260 81 -478 287 -673 98 -92 119 -101 395 -175 76 -21 99 -22 427 -19
l347 3 -85 115 c-47 63 -103 151 -124 195 -22 44 -48 95 -59 114 -24 40 -16
63 29 86 16 8 41 30 55 49 30 40 52 51 71 35 7 -6 45 -72 85 -147 39 -76 95
-177 124 -227 28 -50 69 -120 89 -157 l37 -68 85 0 85 0 -69 103 c-85 125
-137 208 -170 267 -14 25 -61 98 -104 163 -43 65 -105 164 -137 220 -32 56
-76 131 -99 167 -123 196 -172 279 -172 289 0 7 25 23 56 37 31 13 72 36 92
49 20 14 42 25 49 25 19 0 136 -191 268 -435 27 -49 81 -144 120 -210 39 -66
119 -216 178 -332 113 -224 122 -255 92 -313 l-16 -30 55 0 55 0 26 55 c57
119 95 308 96 479 3 258 -85 553 -242 813 -55 90 -205 249 -339 359 -51 41
-76 72 -113 137 -28 50 -69 104 -100 133 -52 49 -52 49 -24 52 102 12 406
-187 583 -381 102 -113 216 -290 269 -417 124 -302 173 -543 162 -800 -6 -123
-19 -189 -75 -367 l-20 -63 614 0 614 0 0 3325 c0 3338 0 3375 -32 3375 -5 0
-6 -5 -2 -12 4 -7 3 -8 -4 -4 -6 4 -8 14 -5 23 4 11 -7 28 -38 54 -36 32 -41
40 -29 49 13 9 7 14 -12 11 -5 0 -8 4 -8 10 0 5 -4 7 -10 4 -5 -3 -10 -1 -10
5 0 7 7 10 15 6 8 -3 15 -1 15 4 0 6 -7 10 -15 10 -8 0 -12 6 -9 14 3 9 -4 20
-18 27 -13 7 -31 21 -40 32 -15 16 -16 23 -5 35 7 9 7 13 1 9 -6 -4 -19 2 -29
13 -10 12 -13 20 -7 20 7 0 12 4 12 10 0 5 -6 7 -14 4 -19 -7 -32 16 -15 27
11 7 10 9 -4 9 -11 0 -15 4 -11 12 4 6 3 8 -4 4 -6 -3 -18 4 -26 16 -20 28
-21 44 -1 28 12 -10 15 -10 15 0 0 6 -8 14 -18 17 -22 5 -56 59 -47 73 4 6 -1
7 -11 3 -12 -4 -15 -3 -10 5 4 7 2 12 -3 12 -6 0 -11 7 -11 16 0 8 -4 13 -8
10 -5 -3 -8 5 -7 17 1 12 -7 28 -18 36 -15 11 -16 15 -6 22 11 7 12 9 1 9 -24
0 -42 26 -29 39 9 9 8 11 -7 5 -13 -5 -17 -4 -12 4 4 7 3 12 -3 12 -6 0 -15
10 -22 21 -7 15 -8 19 0 15 7 -5 9 -1 5 8 -3 9 -12 16 -20 16 -8 0 -11 6 -7
15 3 9 -2 21 -11 28 -10 7 -17 17 -16 22 2 6 2 17 1 25 -1 11 -3 12 -9 3 -5
-8 -12 -9 -22 -2 -11 8 -12 12 -3 16 10 3 9 8 -2 20 -8 8 -12 19 -9 25 4 6 2
8 -3 5 -6 -4 -19 3 -29 15 -18 20 -18 21 -1 15 21 -8 21 -8 -17 58 -16 28 -43
59 -60 71 -17 11 -30 26 -28 33 1 6 -5 14 -13 17 -8 4 -15 13 -15 21 0 8 -4
11 -10 8 -5 -3 -10 -3 -11 2 -1 16 -7 38 -15 57 -5 14 -4 17 6 11 8 -5 11 -3
8 6 -3 8 -10 15 -16 15 -7 1 -18 2 -25 3 -11 1 -16 14 -19 58 -1 7 -9 15 -19
18 -10 3 -21 15 -24 26 -4 10 -11 19 -16 19 -5 0 -9 6 -9 14 0 8 -11 28 -25
44 -15 18 -23 38 -20 51 3 14 0 19 -7 15 -7 -5 -9 -2 -5 9 4 11 2 14 -9 10
-13 -5 -19 11 -15 43 1 6 -10 19 -23 28 -16 10 -24 23 -21 36 3 14 -2 20 -13
20 -15 0 -15 2 -2 10 12 8 9 10 -12 10 -22 0 -28 5 -28 21 0 11 -4 17 -10 14
-5 -3 -7 0 -4 8 3 8 -3 23 -13 32 -10 10 -19 22 -19 27 -1 4 -3 11 -4 16 -1 4
-2 10 -1 15 0 4 -4 7 -11 7 -6 0 -8 3 -5 6 4 4 -3 15 -14 25 -11 9 -19 26 -17
35 2 10 -3 19 -9 20 -7 1 -17 2 -23 3 -5 0 -10 7 -10 15 0 7 -13 26 -28 43
-17 17 -28 39 -27 52 1 13 -4 25 -12 28 -7 3 -13 11 -13 19 0 8 -4 14 -10 14
-5 0 -7 6 -4 13 2 7 -5 22 -16 34 -11 12 -20 27 -20 33 0 5 -4 10 -9 10 -8 0
-49 58 -60 85 -2 6 -16 26 -31 45 -14 19 -41 60 -59 90 -19 30 -37 57 -41 60
-4 3 -22 30 -40 60 -32 53 -136 214 -152 235 -14 17 -52 76 -122 190 -69 112
-127 201 -144 221 -6 6 -17 25 -26 41 -8 17 -22 38 -30 45 -8 8 -45 64 -83
124 -37 60 -81 128 -98 151 l-30 43 -2530 0 -2530 0 -50 -23z m2811 -1191 c72
-19 169 -73 204 -113 98 -111 124 -289 61 -410 -21 -41 -102 -126 -117 -122
-5 2 -36 -3 -69 -10 -81 -18 -207 -10 -266 18 -55 25 -151 95 -196 142 -17 19
-48 61 -68 94 -33 54 -36 56 -30 26 4 -19 13 -41 20 -48 8 -7 26 -38 40 -68
19 -37 33 -54 44 -53 9 2 15 -2 14 -9 -1 -6 4 -17 12 -23 8 -7 15 -17 15 -23
0 -6 -16 5 -36 24 -90 86 -140 204 -129 302 15 138 93 230 228 272 56 18 209
18 273 1z m-676 -602 c50 -83 159 -178 260 -226 47 -22 96 -45 110 -52 27 -12
36 -42 21 -65 -11 -18 -28 -18 -257 -1 -219 16 -428 5 -571 -30 -45 -11 -112
-24 -149 -30 -72 -12 -315 -87 -404 -125 -303 -131 -463 -227 -668 -403 -106
-91 -289 -281 -365 -382 -63 -83 -178 -274 -232 -385 -97 -198 -180 -450 -220
-665 -64 -350 -36 -704 87 -1079 64 -198 102 -285 188 -437 204 -360 461 -641
820 -896 432 -307 1010 -506 1562 -538 364 -21 675 22 1043 144 390 130 731
349 1004 644 281 304 433 583 540 997 63 240 68 613 12 875 -88 415 -209 708
-419 1015 -123 179 -269 361 -392 488 -125 128 -146 159 -196 285 -36 91 -163
323 -230 420 -24 34 -40 62 -35 62 21 0 125 -42 211 -85 438 -219 900 -706
1167 -1230 144 -281 271 -688 320 -1020 22 -149 21 -478 -1 -638 -59 -421
-213 -812 -450 -1147 -90 -128 -146 -191 -305 -348 -174 -171 -248 -233 -418
-348 -299 -203 -649 -351 -1018 -429 -254 -55 -355 -66 -641 -72 -498 -11
-874 58 -1354 248 -577 228 -1049 597 -1447 1129 -74 100 -222 365 -278 501
-169 407 -240 850 -205 1274 15 180 28 253 75 440 62 244 106 368 195 552 172
356 379 635 660 889 100 90 153 131 288 218 455 297 1077 494 1587 505 l71 1
34 -56z m518 -70 c44 -9 106 -14 144 -12 47 2 64 0 57 -7 -17 -17 -168 -9
-234 13 -74 25 -66 27 33 6z m658 -142 c15 -26 41 -69 59 -97 17 -27 82 -140
145 -250 62 -110 141 -249 175 -310 267 -469 335 -590 524 -937 210 -384 302
-552 316 -573 7 -11 61 -110 120 -220 59 -110 130 -239 157 -288 l51 -87 -22
-52 c-12 -28 -26 -94 -31 -147 -23 -209 -30 -252 -66 -372 -35 -119 -54 -163
-54 -126 0 18 -46 105 -90 172 -15 22 -40 65 -55 95 -15 30 -54 98 -85 150
-81 133 -235 403 -312 545 -181 333 -254 468 -298 545 -26 47 -103 189 -170
315 -180 339 -212 392 -222 369 -6 -15 -7 -13 -3 7 2 14 -2 34 -9 45 -8 10
-26 42 -41 69 -31 57 -61 94 -49 60 4 -11 12 -23 17 -26 5 -4 7 -13 5 -20 -5
-14 -68 90 -68 112 0 11 2 11 10 -1 5 -8 11 -12 14 -9 3 3 -12 34 -34 70 -21
35 -51 85 -66 112 -15 26 -29 45 -31 43 -3 -2 0 -12 6 -23 21 -38 41 -83 37
-83 -4 0 -198 319 -245 404 -12 21 -20 41 -17 43 6 6 66 -88 66 -103 0 -6 7
-17 15 -24 23 -19 18 2 -13 51 -15 24 -38 64 -51 89 -40 78 -93 152 -101 140
-4 -6 -27 19 -57 62 l-51 73 192 99 c187 97 283 139 298 130 4 -3 20 -26 34
-52z m-801 -303 c121 -13 111 -7 175 -107 l40 -64 -28 7 c-36 7 -170 -9 -237
-29 -119 -36 -202 -114 -242 -227 l-18 -49 -90 0 c-155 0 -447 -53 -600 -110
-56 -20 -230 -113 -310 -165 -169 -110 -380 -307 -503 -470 -75 -100 -186
-310 -232 -440 -36 -104 -79 -286 -91 -389 -16 -141 -6 -404 21 -531 64 -304
208 -586 418 -822 94 -106 265 -253 393 -338 226 -151 623 -302 904 -344 39
-6 135 -14 213 -17 l143 -7 23 -41 c12 -23 42 -75 66 -116 23 -41 67 -118 97
-170 30 -52 64 -111 75 -130 17 -28 18 -32 4 -19 -14 13 -26 15 -59 7 -64 -14
-496 -2 -601 17 -50 9 -98 21 -108 26 -10 6 -23 7 -28 4 -6 -4 -13 0 -16 9 -3
8 -12 12 -21 9 -8 -3 -19 0 -24 8 -7 11 -12 12 -28 2 -13 -8 -22 -9 -26 -3 -3
6 0 10 7 10 9 0 9 3 -2 10 -12 8 -10 10 11 10 14 0 31 -6 37 -12 10 -10 14 -8
18 10 4 12 11 22 17 22 8 0 7 4 -1 12 -8 8 -15 8 -24 1 -7 -6 -30 -13 -52 -16
-34 -5 -37 -3 -23 10 8 8 26 16 41 16 14 1 26 5 26 9 0 3 3 13 6 22 5 12 -1
15 -29 13 -22 -2 -33 1 -31 8 3 6 -5 11 -17 12 -28 2 -32 7 -33 39 -1 32 -21
43 -30 17 -4 -10 -2 -19 3 -21 6 -2 9 -8 5 -13 -3 -5 -13 -5 -25 2 -16 8 -18
13 -8 25 9 12 6 14 -20 14 -17 0 -31 5 -31 11 0 7 11 9 30 6 17 -4 30 -5 30
-3 0 3 3 13 7 23 6 16 5 16 -10 4 -14 -11 -17 -11 -18 0 0 11 -2 11 -6 1 -4
-10 -9 -8 -20 7 -8 12 -11 26 -8 31 3 6 -3 10 -15 10 -12 0 -18 5 -15 10 7 11
-18 40 -34 40 -19 0 -12 -18 10 -25 11 -4 18 -9 15 -12 -3 -4 -1 -12 5 -20 13
-15 13 -15 -19 -18 -15 -2 -20 1 -13 8 11 11 4 37 -10 37 -5 0 -9 -9 -9 -20 0
-11 -6 -20 -14 -20 -11 0 -13 7 -6 30 8 30 8 30 -23 24 -58 -11 -77 -11 -71
-3 3 5 0 9 -5 9 -17 0 -13 -20 4 -26 12 -5 13 -10 4 -20 -13 -16 -33 -19 -24
-4 3 5 1 18 -5 29 -8 16 -6 21 10 26 11 3 25 3 32 -1 7 -3 0 5 -16 20 -33 29
-48 34 -40 11 4 -8 10 -12 15 -9 5 3 9 0 9 -5 0 -6 -7 -11 -15 -11 -8 0 -15
-5 -15 -11 0 -6 -7 -8 -16 -5 -32 12 -69 18 -56 8 11 -7 9 -10 -7 -15 -18 -4
-21 -1 -21 25 0 27 -2 29 -17 17 -15 -12 -16 -12 -10 3 3 10 2 20 -3 23 -6 4
-10 -1 -10 -10 0 -13 -6 -16 -26 -11 -22 6 -24 5 -15 -13 6 -11 8 -26 5 -35
-3 -8 4 -24 15 -35 19 -19 25 -19 22 2 0 4 3 7 8 7 4 0 7 12 4 28 -3 26 -3 26
7 4 5 -13 8 -28 4 -33 -3 -5 1 -9 8 -10 9 0 9 -2 -2 -6 -8 -4 -21 -13 -30 -21
-13 -13 -10 -14 22 -8 34 6 37 5 49 -26 12 -32 12 -32 16 -8 8 44 23 47 24 5
0 -22 2 -48 4 -57 4 -21 6 -21 -33 -7 -18 6 -29 16 -25 22 3 6 1 7 -5 3 -14
-9 -51 10 -75 38 -10 11 -16 15 -12 9 8 -17 5 -16 -34 3 -37 19 -36 39 2 39
16 -1 27 5 27 12 0 7 -4 13 -9 13 -14 0 -20 38 -7 44 6 3 -1 3 -16 0 -21 -5
-28 -2 -28 9 0 9 -3 18 -7 20 -5 3 -8 -5 -8 -18 0 -13 3 -21 8 -18 4 2 7 -1 7
-7 0 -6 4 -9 9 -5 5 3 12 1 15 -4 8 -12 -29 -52 -39 -43 -5 4 -5 1 -1 -5 4 -7
2 -13 -3 -13 -6 0 -11 5 -11 10 0 6 -7 10 -16 10 -18 0 -139 64 -169 89 -11
10 -58 42 -105 73 -113 73 -228 172 -380 326 -156 159 -179 187 -275 342 -123
197 -197 349 -248 510 -83 262 -117 471 -117 715 1 339 68 638 210 930 154
317 340 546 629 777 115 92 180 133 344 218 250 129 551 224 812 255 140 16
496 14 670 -6z m4246 -231 c6 -12 6 -18 0 -18 -10 0 -41 51 -41 67 1 9 26 -22
41 -49z m-327 -24 c3 -8 2 -12 -4 -9 -6 3 -10 10 -10 16 0 14 7 11 14 -7z
m-3619 -173 c61 -27 121 -83 146 -136 25 -54 25 -165 0 -220 -19 -44 -80 -104
-133 -131 -48 -26 -157 -23 -231 6 -78 30 -118 67 -152 141 -24 54 -27 71 -23
129 6 78 44 159 92 193 71 50 209 59 301 18z m-1205 -398 c20 -28 43 -61 51
-73 13 -20 18 -21 57 -11 61 17 265 14 337 -4 99 -25 325 -146 325 -174 0 -11
-137 -178 -149 -183 -5 -2 -34 -27 -64 -55 -31 -29 -61 -53 -68 -53 -7 0 -40
16 -74 35 -96 53 -143 60 -260 36 -122 -25 -168 -54 -203 -129 -38 -84 -11
-167 64 -198 49 -21 154 -18 216 6 106 40 490 56 621 26 183 -43 336 -182 399
-364 17 -52 23 -88 22 -162 0 -115 -15 -180 -64 -287 -45 -97 -115 -170 -202
-211 l-56 -27 61 -115 c33 -64 58 -122 55 -130 -8 -21 -260 -148 -265 -134 -2
6 -34 55 -71 110 l-67 99 -40 -5 c-82 -10 -260 -3 -323 14 -129 33 -367 152
-395 197 -11 17 47 91 205 263 l64 69 63 -46 c81 -60 123 -72 251 -72 101 0
108 1 181 37 117 57 160 119 144 206 -9 51 -32 86 -69 108 -47 27 -168 30
-301 6 -195 -36 -345 -47 -443 -32 -104 15 -224 57 -285 99 -83 57 -162 167
-203 285 -18 50 -20 254 -3 322 30 124 96 221 202 299 l64 48 -38 66 c-33 55
-37 68 -25 79 19 19 218 111 236 109 8 -1 31 -25 50 -54z m1811 -65 c1 -7 1
-16 0 -20 0 -5 4 -8 9 -8 6 0 10 -6 10 -12 -1 -14 -40 29 -40 43 0 14 20 11
21 -3z m-195 -135 c19 -32 90 -157 156 -278 66 -121 144 -263 173 -315 29 -52
101 -185 160 -295 136 -252 261 -480 362 -660 44 -77 143 -252 220 -390 78
-137 171 -299 207 -359 36 -60 66 -115 66 -122 0 -12 -33 -64 -105 -163 -11
-16 -29 -41 -40 -57 -11 -16 -30 -40 -43 -54 -13 -14 -29 -36 -35 -50 -15 -31
-78 -120 -86 -120 -3 0 -36 55 -74 123 -37 67 -108 192 -158 277 -49 85 -124
216 -166 290 -42 74 -115 200 -161 280 -47 80 -105 181 -130 225 -24 44 -84
145 -132 225 -77 128 -129 221 -258 460 -20 36 -48 84 -64 107 -15 23 -28 45
-28 48 0 9 -112 205 -117 205 -2 0 -1 -4 2 -10 3 -6 -1 -7 -10 -4 -9 4 -15 16
-14 28 2 11 -1 32 -6 46 -11 35 -55 103 -62 96 -3 -3 0 -12 7 -21 7 -9 10 -18
6 -22 -7 -8 -6 -9 -39 49 -15 26 -27 59 -27 75 0 22 -2 25 -10 13 -7 -12 -11
-8 -16 17 -4 20 -11 30 -18 26 -8 -4 -8 -2 1 7 8 9 6 17 -8 31 -11 11 -17 24
-14 29 6 9 -8 14 -20 8 -10 -6 -57 74 -49 82 27 25 455 229 482 230 7 0 29
-26 48 -57z m292 -39 c13 -19 21 -41 19 -47 -2 -7 -11 2 -18 18 -8 17 -19 36
-26 43 -15 15 -16 22 -5 22 4 0 17 -16 30 -36z m1777 -344 c3 -5 1 -10 -4 -10
-6 0 -11 5 -11 10 0 6 2 10 4 10 3 0 8 -4 11 -10z m-2355 -190 c0 -5 -5 -10
-11 -10 -5 0 -7 5 -4 10 3 6 8 10 11 10 2 0 4 -4 4 -10z m-1754 -797 c67 -23
158 -113 174 -173 15 -55 6 -128 -24 -199 -31 -72 -67 -115 -124 -148 -40 -24
-57 -28 -122 -27 -213 1 -351 190 -284 388 23 66 97 140 160 160 66 20 160 20
220 -1z m2080 -245 c31 -57 89 -157 129 -223 39 -66 114 -194 165 -285 52 -91
146 -255 209 -365 63 -110 144 -252 179 -315 36 -63 80 -137 98 -165 19 -27
34 -57 34 -65 0 -11 -2 -12 -8 -3 -7 10 -14 10 -35 0 -15 -6 -27 -17 -27 -24
0 -16 -67 -61 -165 -110 -44 -22 -100 -54 -125 -71 -32 -21 -49 -28 -61 -21
-9 4 -36 46 -60 91 -23 46 -64 114 -89 153 -73 110 -279 457 -380 640 -77 141
-122 215 -128 211 -4 -2 -8 6 -9 17 -2 29 -190 388 -211 404 -19 16 -18 17 43
37 28 9 75 30 105 48 122 69 265 147 271 147 4 1 33 -45 65 -101z m234 27 c0
-5 -5 -3 -10 5 -5 8 -10 20 -10 25 0 6 5 3 10 -5 5 -8 10 -19 10 -25z m-1829
-407 c34 -57 97 -155 139 -218 91 -137 156 -246 235 -394 31 -60 77 -141 101
-180 52 -84 56 -101 11 -58 -19 19 -43 32 -58 32 -40 0 -282 49 -350 70 -34
11 -69 20 -79 20 -16 0 -53 17 -176 84 -28 15 -65 40 -83 57 -18 16 -41 34
-52 40 -12 6 -18 13 -15 17 4 3 -6 18 -21 34 -28 29 -79 115 -133 226 -17 34
-35 62 -40 62 -5 0 -1 -15 9 -32 10 -18 21 -46 25 -63 5 -22 -4 -12 -33 35
-22 36 -45 71 -52 78 -15 18 -6 25 69 56 35 14 92 43 127 65 34 22 91 52 126
66 100 42 179 84 179 95 0 20 9 8 71 -92z m1042 -120 c14 -23 96 -173 230
-423 73 -135 229 -400 277 -470 15 -22 57 -98 93 -170 36 -71 76 -146 89 -165
39 -57 40 -59 21 -58 -10 0 -63 -16 -118 -36 -55 -21 -116 -42 -135 -46 -20
-5 -62 -21 -94 -35 -57 -25 -60 -26 -76 -8 -23 25 -166 250 -225 353 -70 124
-146 225 -157 208 -6 -9 -8 -7 -3 8 3 14 -3 29 -19 47 -14 15 -22 27 -18 27 4
0 0 6 -8 13 -20 15 -61 77 -129 192 -134 229 -198 328 -203 314 -2 -7 -19 11
-37 40 -18 29 -31 54 -29 56 2 1 57 16 124 33 100 26 355 119 372 137 12 12
32 4 45 -17z m-1429 -1023 c3 -8 1 -15 -4 -15 -6 0 -10 7 -10 15 0 8 2 15 4
15 2 0 6 -7 10 -15z m144 -38 c15 6 15 5 2 -11 -8 -11 -16 -14 -18 -7 -5 16
-32 13 -32 -3 0 -8 -4 -17 -9 -21 -6 -3 -9 4 -8 15 1 11 5 20 10 20 4 0 5 5 1
12 -5 8 -2 9 9 5 10 -4 17 -1 18 6 1 7 3 4 6 -5 3 -11 10 -15 21 -11z m128 0
c4 -4 -5 -7 -19 -7 -15 0 -27 4 -27 10 0 11 35 8 46 -3z m-16 -41 c-7 -7 -14
-6 -21 1 -9 9 -7 12 9 10 14 -1 18 -5 12 -11z m39 -46 c0 -10 -3 -8 -9 5 -12
27 -12 43 0 25 5 -8 9 -22 9 -30z m93 28 c-9 -9 -15 -9 -24 0 -9 9 -7 12 12
12 19 0 21 -3 12 -12z m-163 -40 c0 -13 -3 -17 -6 -10 -2 6 -9 10 -14 6 -5 -3
-9 -1 -9 5 0 8 9 14 28 20 1 1 2 -9 1 -21z m77 -65 c-3 -3 -13 3 -23 13 -17
17 -17 17 0 11 10 -4 17 -2 18 6 1 7 3 4 6 -6 3 -10 2 -21 -1 -24z m-126 7 c0
-5 -2 -10 -4 -10 -3 0 -8 5 -11 10 -3 6 -1 10 4 10 6 0 11 -4 11 -10z m287
-12 c-2 -7 -10 -12 -16 -10 -7 1 -11 -14 -11 -40 1 -40 2 -42 15 -24 11 14 15
16 15 5 0 -8 -9 -20 -19 -26 -22 -14 -47 0 -54 32 -4 17 -5 17 -6 -4 -1 -18
-5 -22 -18 -16 -10 4 -23 8 -30 9 -7 1 -16 5 -19 9 -4 4 -16 7 -26 7 -10 0
-18 5 -18 10 0 6 11 10 25 10 14 0 25 4 25 9 0 16 41 20 47 5 8 -22 33 -16 34
9 1 18 2 19 6 4 5 -18 6 -18 19 2 16 23 39 29 31 9z m1210 -146 c19 -30 33
-56 30 -58 -5 -5 -44 45 -77 101 -37 61 5 24 47 -43z m2038 -1220 c16 -10 40
-34 53 -53 41 -59 17 -148 -51 -189 -85 -52 -235 8 -267 106 -19 57 28 133 95
154 41 13 133 3 170 -18z m272 -309 c16 -26 59 -95 95 -153 36 -58 81 -131 99
-162 19 -31 88 -146 153 -255 206 -344 234 -392 311 -547 58 -116 75 -161 76
-196 1 -45 -17 -210 -27 -242 -8 -28 -30 -21 -52 15 -10 17 -65 111 -121 207
-93 159 -226 380 -291 480 -14 22 -51 81 -83 132 -31 51 -97 155 -145 230
-209 328 -253 401 -250 412 3 13 120 115 153 133 27 16 47 2 82 -54z m-239
-323 c35 -21 72 -74 72 -103 0 -31 -29 -76 -60 -92 -38 -19 -73 -19 -116 1
-67 32 -86 126 -38 183 21 26 33 31 67 31 24 0 56 -9 75 -20z m-574 -135 c33
-60 45 -66 106 -55 71 13 152 -7 243 -61 78 -47 78 -46 -8 -128 -41 -39 -60
-51 -73 -45 -74 32 -129 45 -161 38 -20 -4 -45 -9 -55 -10 -26 -2 -56 -40 -56
-71 0 -33 42 -73 77 -72 15 0 89 4 163 8 140 9 232 1 280 -24 39 -20 98 -84
120 -131 44 -90 13 -209 -71 -270 -41 -31 -47 -53 -24 -94 22 -38 19 -75 -7
-87 -62 -30 -94 -20 -118 37 -12 28 -16 31 -44 26 -119 -24 -187 -15 -288 35
-80 40 -85 65 -27 126 65 66 73 69 124 39 74 -44 164 -29 248 42 37 32 11 86
-49 98 -17 3 -93 -2 -170 -11 -128 -15 -145 -15 -207 -1 -90 21 -129 52 -172
138 -29 60 -35 81 -35 137 0 99 13 134 70 183 47 40 48 43 35 68 -8 15 -21 32
-29 40 -21 17 -5 37 49 61 55 24 58 24 79 -16z m-113 -792 c69 -58 71 -136 6
-180 -59 -40 -114 -35 -167 15 -33 32 -40 46 -40 77 0 30 7 45 39 76 34 34 45
39 84 39 35 0 53 -6 78 -27z m223 -231 c4 -10 36 -70 71 -132 36 -63 64 -119
61 -125 -5 -14 -72 -6 -202 24 -76 18 -100 29 -142 64 -28 23 -51 47 -51 52
-1 18 207 135 240 135 10 0 20 -8 23 -18z m496 -134 c17 -35 39 -78 50 -97 33
-60 11 -71 -142 -71 -60 0 -99 5 -118 15 -30 16 -74 80 -85 127 -8 30 -14 28
113 47 41 6 86 18 100 26 43 23 50 19 82 -47z"/>
<path d="M5977 7505 c10 -22 29 -51 42 -65 22 -23 22 -22 -4 25 -37 67 -63 93
-38 40z"/>
<path d="M3562 4560 c7 -11 17 -20 22 -20 5 0 1 9 -9 20 -10 11 -20 20 -22 20
-2 0 2 -9 9 -20z"/>
<path d="M3606 4507 c3 -10 9 -15 12 -12 3 3 0 11 -7 18 -10 9 -11 8 -5 -6z"/>
<path d="M3645 4460 c26 -32 96 -100 185 -179 54 -48 68 -66 58 -73 -10 -7
-10 -8 2 -6 8 2 30 -8 48 -20 17 -13 32 -21 32 -17 0 3 13 -2 29 -11 17 -10
28 -21 25 -26 -3 -4 3 -5 12 -1 12 4 15 3 10 -5 -5 -8 0 -12 13 -12 11 0 30
-10 43 -23 20 -20 53 -38 68 -38 3 0 14 -9 26 -20 11 -10 23 -16 27 -13 3 4
22 -3 42 -15 20 -11 42 -21 50 -21 8 0 17 -5 21 -12 5 -7 2 -9 -7 -4 -8 4 -3
-2 11 -14 14 -13 26 -17 28 -11 5 16 22 13 22 -4 0 -8 5 -15 11 -15 5 0 7 5 4
10 -3 6 3 10 14 10 12 0 21 -4 21 -10 0 -5 9 -10 19 -10 11 0 22 -4 25 -9 4
-5 -4 -7 -16 -4 -16 4 -20 2 -13 -4 17 -17 63 -24 68 -10 3 7 6 5 6 -6 1 -22
43 -39 106 -43 28 -2 61 -5 75 -8 84 -16 84 -11 0 15 -245 78 -400 140 -540
217 -150 82 -266 166 -420 304 -69 61 -116 101 -105 88z"/>
<path d="M3675 4070 c3 -5 8 -10 11 -10 2 0 4 5 4 10 0 6 -5 10 -11 10 -5 0
-7 -4 -4 -10z"/>
<path d="M3708 4073 c7 -3 16 -2 19 1 4 3 -2 6 -13 5 -11 0 -14 -3 -6 -6z"/>
<path d="M3716 3997 c3 -10 9 -15 12 -12 3 3 0 11 -7 18 -10 9 -11 8 -5 -6z"/>
<path d="M3724 3959 c-4 -7 -3 -9 4 -5 5 3 13 0 15 -6 4 -9 6 -10 6 -1 1 17
-16 25 -25 12z"/>
<path d="M3980 3879 c0 -5 5 -7 10 -4 6 3 10 8 10 11 0 2 -4 4 -10 4 -5 0 -10
-5 -10 -11z"/>
<path d="M3756 3853 c-6 -14 -5 -15 5 -6 7 7 10 15 7 18 -3 3 -9 -2 -12 -12z"/>
<path d="M4105 3859 c-4 -6 -5 -12 -2 -15 2 -3 7 2 10 11 7 17 1 20 -8 4z"/>
<path d="M4052 3811 c-6 -17 -9 -31 -6 -31 7 0 25 52 20 57 -2 2 -8 -10 -14
-26z"/>
<path d="M4609 3813 c-13 -16 -12 -17 4 -4 9 7 17 15 17 17 0 8 -8 3 -21 -13z"/>
<path d="M4305 3810 c-3 -6 1 -7 9 -4 18 7 21 14 7 14 -6 0 -13 -4 -16 -10z"/>
<path d="M4827 3801 c4 -17 8 -19 19 -10 10 8 18 8 27 0 10 -8 14 -7 14 4 0 8
-8 15 -18 15 -9 0 -24 3 -32 6 -12 4 -14 0 -10 -15z"/>
<path d="M4216 3791 c-4 -7 -5 -15 -2 -18 9 -9 19 4 14 18 -4 11 -6 11 -12 0z"/>
<path d="M4565 3791 c-7 -12 3 -17 40 -19 24 0 26 1 10 7 -11 5 -26 6 -34 3
-9 -3 -12 -1 -7 6 4 7 5 12 2 12 -3 0 -7 -4 -11 -9z"/>
<path d="M4910 3791 c0 -5 9 -7 20 -4 11 3 20 7 20 9 0 2 -9 4 -20 4 -11 0
-20 -4 -20 -9z"/>
<path d="M4960 3790 c0 -5 5 -10 11 -10 5 0 7 5 4 10 -3 6 -8 10 -11 10 -2 0
-4 -4 -4 -10z"/>
<path d="M4246 3775 c4 -8 10 -15 15 -15 4 0 6 7 3 15 -4 8 -10 15 -15 15 -4
0 -6 -7 -3 -15z"/>
<path d="M4376 3775 c4 -8 12 -15 20 -15 20 0 17 7 -6 20 -16 9 -18 8 -14 -5z"/>
<path d="M5108 3773 c18 -2 45 -2 60 0 15 2 0 4 -33 4 -33 0 -45 -2 -27 -4z"/>
<path d="M4350 3759 c0 -5 5 -7 10 -4 6 3 10 8 10 11 0 2 -4 4 -10 4 -5 0 -10
-5 -10 -11z"/>
<path d="M4516 3752 c-3 -6 1 -13 10 -16 23 -9 28 -2 10 13 -8 7 -17 8 -20 3z"/>
<path d="M4000 3711 c0 -5 5 -13 10 -16 6 -3 10 -2 10 4 0 5 -4 13 -10 16 -5
3 -10 2 -10 -4z"/>
<path d="M4535 3690 c3 -5 16 -10 28 -9 21 0 21 1 2 9 -28 12 -37 12 -30 0z"/>
<path d="M4591 3643 c0 -11 3 -13 6 -6 3 10 8 9 20 -2 8 -8 20 -15 26 -14 9 0
8 2 0 6 -20 8 -15 21 10 26 12 2 3 5 -20 6 -35 1 -43 -2 -42 -16z"/>
<path d="M4648 3602 c-17 -3 -21 -12 -15 -29 3 -12 31 -9 45 4 14 13 16 27 3
19 -5 -4 -11 -3 -13 2 -1 4 -11 6 -20 4z"/>
<path d="M4713 3586 c-10 -11 -9 -15 2 -20 10 -4 15 1 15 14 0 23 -1 24 -17 6z"/>
<path d="M5463 3498 c13 -24 23 -51 22 -60 -2 -10 1 -18 6 -18 6 0 7 -4 4 -10
-3 -5 1 -10 9 -10 9 0 16 3 16 7 0 10 -70 133 -76 133 -3 0 5 -19 19 -42z"/>
<path d="M4838 3482 c-15 -6 -15 -9 -2 -26 14 -19 14 -19 14 1 0 12 6 24 13
26 6 3 8 5 2 6 -5 0 -18 -3 -27 -7z"/>
<path d="M5565 6690 c3 -5 8 -10 11 -10 2 0 4 5 4 10 0 6 -5 10 -11 10 -5 0
-7 -4 -4 -10z"/>
<path d="M7346 4537 c3 -10 9 -15 12 -12 3 3 0 11 -7 18 -10 9 -11 8 -5 -6z"/>
<path d="M6656 4257 c3 -10 9 -15 12 -12 3 3 0 11 -7 18 -10 9 -11 8 -5 -6z"/>
<path d="M6713 4149 c6 -19 16 -37 20 -40 4 -3 1 -11 -7 -18 -10 -8 -16 -9
-21 -1 -4 7 -11 5 -21 -5 -16 -15 -10 -40 7 -29 5 3 7 10 4 15 -4 5 -2 9 4 9
21 0 20 -19 -3 -33 -22 -15 -24 -14 -35 6 -11 22 -11 22 -5 -2 4 -16 3 -21 -5
-17 -6 4 -11 14 -11 23 0 9 -3 14 -6 10 -12 -11 7 -44 32 -56 15 -6 24 -14 21
-18 -4 -3 -13 0 -22 7 -10 8 -15 9 -15 1 0 -6 -3 -10 -7 -10 -20 3 -26 -2 -13
-11 13 -8 12 -10 -4 -10 -12 0 -16 -5 -12 -16 3 -9 6 -20 6 -25 0 -6 5 -7 10
-4 6 3 10 -3 10 -14 0 -12 5 -21 11 -21 6 0 8 7 5 16 -5 14 -4 15 8 5 8 -7 19
-10 24 -7 5 3 15 -6 22 -19 7 -14 19 -25 26 -25 7 0 19 -2 27 -6 9 -3 20 7 31
30 19 40 32 51 41 36 3 -5 10 -10 15 -10 8 0 -123 246 -140 264 -5 5 -4 -6 3
-25z m48 -88 c11 -27 -6 -19 -22 11 -8 16 -8 19 2 16 6 -2 16 -14 20 -27z
m-56 -41 c3 -5 1 -10 -4 -10 -6 0 -11 5 -11 10 0 6 2 10 4 10 3 0 8 -4 11 -10z
m75 6 c0 -3 -4 -8 -10 -11 -5 -3 -10 -1 -10 4 0 6 5 11 10 11 6 0 10 -2 10 -4z
m-135 -76 c3 -5 2 -10 -4 -10 -5 0 -13 5 -16 10 -3 6 -2 10 4 10 5 0 13 -4 16
-10z"/>
<path d="M6648 4103 c7 -3 16 -2 19 1 4 3 -2 6 -13 5 -11 0 -14 -3 -6 -6z"/>
<path d="M6586 4001 c-3 -5 1 -11 9 -14 9 -4 12 -1 8 9 -6 16 -10 17 -17 5z"/>
<path d="M6685 3880 c3 -5 8 -10 11 -10 2 0 4 5 4 10 0 6 -5 10 -11 10 -5 0
-7 -4 -4 -10z"/>
<path d="M6656 3865 c-9 -26 -7 -32 5 -12 6 10 9 21 6 23 -2 3 -7 -2 -11 -11z"/>
<path d="M5036 4586 c3 -9 11 -16 16 -16 13 0 5 23 -10 28 -7 2 -10 -2 -6 -12z"/>
<path d="M6090 3745 c0 -8 4 -15 10 -15 5 0 7 7 4 15 -4 8 -8 15 -10 15 -2 0
-4 -7 -4 -15z"/>
<path d="M9360 8064 c0 -8 5 -12 10 -9 6 4 8 11 5 16 -9 14 -15 11 -15 -7z"/>
<path d="M0 3922 c0 -607 -2 -586 61 -639 16 -14 29 -33 29 -44 0 -10 6 -19
14 -19 8 0 18 -9 21 -20 3 -11 13 -20 20 -20 8 0 19 -15 24 -32 5 -18 10 -27
10 -20 1 7 5 11 11 7 5 -3 7 -11 4 -18 -2 -7 9 -18 25 -25 19 -8 31 -22 34
-41 3 -15 17 -41 30 -57 13 -16 30 -46 36 -67 7 -20 16 -35 20 -32 9 5 31 -38
31 -60 0 -8 5 -15 10 -15 6 0 10 -7 10 -16 0 -10 6 -14 15 -10 11 4 15 -1 15
-19 0 -13 12 -38 27 -55 15 -18 27 -41 28 -51 1 -9 15 -34 31 -54 16 -21 34
-46 40 -56 6 -11 21 -30 33 -43 11 -12 21 -30 21 -39 0 -9 6 -16 13 -15 6 2
11 -3 9 -9 -1 -7 2 -13 8 -13 5 0 10 -8 10 -17 0 -9 8 -25 17 -35 9 -10 18
-26 19 -36 4 -30 28 -85 49 -108 32 -36 40 -47 53 -80 7 -17 33 -49 57 -72 25
-23 45 -49 45 -57 0 -8 4 -15 8 -15 4 0 21 -29 37 -65 17 -36 35 -65 40 -65 6
0 23 -24 39 -53 17 -28 36 -58 43 -65 7 -7 13 -21 13 -31 0 -26 28 -78 45 -85
8 -3 12 -12 9 -21 -3 -8 -1 -15 5 -15 6 0 11 -7 11 -15 0 -8 11 -25 25 -39 13
-13 27 -37 30 -53 4 -15 15 -44 26 -64 10 -20 19 -44 19 -52 0 -8 15 -34 34
-56 19 -23 38 -50 41 -61 4 -11 11 -20 16 -20 5 0 9 -8 9 -18 0 -10 7 -28 16
-40 9 -13 13 -29 10 -37 -3 -8 -2 -15 3 -15 5 0 11 -10 15 -22 5 -22 63 -118
86 -145 5 -7 10 -19 10 -28 0 -8 4 -15 8 -15 4 0 14 -17 21 -38 8 -20 25 -50
38 -66 21 -25 89 -153 182 -343 9 -18 20 -32 25 -33 12 0 52 -53 48 -63 -1 -5
9 -24 23 -42 29 -39 115 -212 115 -233 0 -7 9 -16 19 -19 10 -3 21 -17 24 -32
3 -14 14 -36 25 -49 19 -21 25 -22 221 -22 l202 0 -6 23 c-4 12 -29 58 -55
102 -63 107 -94 161 -196 350 -48 88 -108 196 -134 240 -26 44 -60 105 -75
135 -15 30 -49 88 -76 127 -27 40 -74 122 -103 183 -30 61 -59 116 -64 123 -5
7 -43 77 -85 157 -41 80 -98 185 -126 234 -29 49 -72 130 -97 180 -25 50 -49
96 -54 101 -7 9 -161 309 -185 361 -18 39 -256 508 -273 539 -42 75 -92 164
-118 210 -15 28 -55 93 -90 145 -72 110 -194 345 -197 378 -1 12 -5 22 -9 22
-4 0 -8 7 -8 16 0 19 -66 141 -126 234 -40 62 -94 157 -172 300 -19 36 -43 74
-52 85 -10 11 -41 67 -69 125 l-51 104 0 -552z m320 -242 c0 -8 30 -68 66
-135 67 -120 97 -172 237 -405 41 -69 88 -153 106 -187 17 -35 62 -107 99
-162 65 -94 103 -174 89 -187 -10 -10 -40 31 -99 134 -29 52 -68 112 -85 135
-18 23 -50 76 -71 117 -22 41 -72 131 -112 200 -141 239 -229 402 -224 415 3
7 -2 15 -10 18 -9 4 -13 13 -10 21 4 10 -5 20 -26 31 l-32 17 23 24 23 25 13
-23 c7 -13 12 -30 13 -38z"/>
</g>
</svg>
